<mxfile host="app.diagrams.net" modified="2024-04-18T09:08:14.973Z" agent="Mozilla/5.0 (Macintosh; Intel Mac OS X 10_15_7) AppleWebKit/537.36 (KHTML, like Gecko) Chrome/124.0.0.0 Safari/537.36" version="24.2.5" etag="xRFex-2AezG4M_kE1osY" type="github">
  <diagram name="Page-1" id="hXLqB0swPFE4hcAn6tgK">
    <mxGraphModel>
      <root>
        <mxCell id="0" />
        <mxCell id="1" parent="0" />
      </root>
    </mxGraphModel>
  </diagram>
</mxfile>
